<?xml version="1.0" encoding="utf-8"?>
<!-- Generator: Adobe Illustrator 23.0.1, SVG Export Plug-In . SVG Version: 6.00 Build 0)  -->
<svg version="1.1" id="Layer_1" xmlns="http://www.w3.org/2000/svg" xmlns:xlink="http://www.w3.org/1999/xlink" x="0px" y="0px"
	 viewBox="0 0 367.1 43.5" style="enable-background:new 0 0 367.1 43.5;" xml:space="preserve">
<style type="text/css">
	.st0{fill:#A02720;}
</style>
<title>SH_wordmark_brown_svg-01</title>
<path class="st0" d="M66.4,38.6c8,0,11.8-5.1,12.5-12.8h0.4L78.7,37c-3.9,1.5-8.1,2.2-12.2,2.1c-10.3,0-18.2-7.2-18.2-17.1
	c0-10,8.5-17.1,18.4-17.1c4.1,0,8.1,0.7,12,2.1l0.6,10.5h-0.4C78,9.8,74.2,5.4,66.8,5.4c-8.6,0-14.2,6.8-14.2,16.7
	S57.6,38.6,66.4,38.6z"/>
<path class="st0" d="M87.9,17.8c0-11.8-0.2-12-2.6-12h-1c-0.4,0-0.4-0.4,0-0.4c1.3,0,4.8,0.1,5.5,0.1s4.1-0.1,5.4-0.1
	c0.4,0,0.4,0.4,0,0.4h-1c-2.4,0-2.6,0.2-2.6,12v8.4c0,11.8,0.2,12,2.6,12h1c0.4,0,0.4,0.4,0,0.4c-1.3,0-4.7-0.2-5.4-0.2
	s-4.1,0.2-5.5,0.2c-0.4,0-0.4-0.4,0-0.4h1c2.3,0,2.6-0.2,2.6-12V17.8z"/>
<path class="st0" d="M105.2,21.1h4c6,0,7.3-2.2,7.3-5.5v-1c0-0.1,0.1-0.2,0.2-0.2c0.1,0,0.2,0.1,0.2,0.2c0,1.4-0.2,6.1-0.2,6.8
	s0.2,5.9,0.2,6.6c0,0.1-0.1,0.2-0.2,0.2c-0.1,0-0.2-0.1-0.2-0.2v-0.7c0-3.3-1.3-5.6-7.3-5.6h-4v9.2c0.1,2.3-0.1,4.7-0.4,7
	c1.4,0,7.6,0.2,9.1,0.2c5.6,0,9.5-4.8,10.1-9.7l0.3-2.5c0-0.3,0.6-0.3,0.5,0l-0.3,2.6c-0.9,7.8-1.2,9.6-1.5,9.9
	c-0.2,0.2-3.1,0.2-6.4,0.2s-12.1-0.2-12.1-0.2l-6.8,0.2c-0.5,0-0.5-0.3,0-0.3c2.8,0,3.2-0.3,3.6-6.4c0.2-3.3,0.2-9.7,0.2-14.1
	c0-11.8-0.4-12-2.8-12h-0.9c-0.4,0-0.4-0.4,0-0.4c1.3,0,4.6,0.1,5.3,0.1s15.2-0.1,16.9-0.1c0.8,0,1.5,0,2.2,0.2
	c0.2,0.1,0.7,3.6,1.4,8.8l0.2,1.7c0.1,0.3-0.4,0.3-0.5,0l-0.2-1.7c-0.9-5.3-4.7-8.3-10.1-8.4H107c-2.2,0-1.8,0-1.8,11.9L105.2,21.1z
	"/>
<path class="st0" d="M144.9,26.2c0,11.8,0.2,12,2.6,12h0.9c0.4,0,0.4,0.4,0,0.4c-1.4,0-4.6-0.2-5.3-0.2s-4,0.2-5.3,0.2
	c-0.4,0-0.4-0.4,0-0.4h0.9c2.4,0,2.6-0.2,2.6-12V5.3h-3.9c-5.1,0-7,3.5-7.9,9.8l-0.4,2.8c-0.1,0.3-0.6,0.3-0.5,0l0.4-2.7
	c0.7-5.2,0.2-9.8,0.5-9.9c1.9-0.3,3.9-0.4,5.9-0.3c1.2,0,5.7,0.1,7.8,0.1s2.9-0.1,7.7-0.1l0,0c2-0.1,3.9,0,5.9,0.3
	c0.3,0.2-0.1,4.8,0.6,9.9l0.3,2.7c0.1,0.3-0.3,0.3-0.4,0l-0.4-2.7c-1-6.2-2.8-9.8-8-9.8h-3.8L144.9,26.2z"/>
<path class="st0" d="M176.1,23.4v2.8c0,11.8,0.2,12,2.6,12h0.9c0.4,0,0.4,0.4,0,0.4c-1.4,0-4.5-0.2-5.2-0.2s-3.9,0.2-5.3,0.2
	c-0.4,0-0.4-0.4,0-0.4h0.9c2.4,0,2.6-0.2,2.6-12v-2.6l-5.2-9.4c-3.7-6.7-4.9-8.4-7.4-8.4h-0.4c-0.2,0-0.3-0.1-0.3-0.2
	c0-0.1,0.1-0.2,0.3-0.2c1.4,0,4,0.1,4.8,0.1s4.4-0.1,5.8-0.1c0.4,0,0.5,0.4,0.1,0.4h-1c-2.4,0-1.6,2.1,2,8.6l4.6,8.4l5.1-8.8
	c1.1-1.9,4.1-8.3-0.6-8.3c-0.4,0-1.1,0.2-1.4,0.2c-0.2,0-0.3-0.1-0.3-0.3c0-0.1,0.1-0.3,0.6-0.3c0.9,0,4.2,0.1,5,0.1s4-0.1,5.2-0.1
	c0.4,0,0.2,0.4-0.1,0.4h-0.1c-2.7,0-6.9,6.6-7.9,8.4L176.1,23.4z"/>
<path class="st0" d="M209,17.8c0-11.8-0.2-12-2.6-12h-0.6c-0.4,0-0.4-0.4,0-0.4c1.3,0,4.4,0.1,5.1,0.1s4-0.1,5.3-0.1
	c0.4,0,0.4,0.4,0,0.4h-1c-2.4,0-2.6,0.2-2.6,12v3.8l8.8-0.1l8.5,0.1v-3.9c0-11.8-0.2-12-2.6-12h-1c-0.4,0-0.4-0.4,0-0.4
	c1.4,0,4.7,0.1,5.4,0.1s3.8-0.1,5.2-0.1c0.4,0,0.4,0.4,0,0.4h-0.8c-2.3,0-2.6,0.2-2.6,12v8.4c0,11.8,0.2,12,2.6,12h0.8
	c0.4,0,0.4,0.4,0,0.4c-1.4,0-4.5-0.2-5.2-0.2s-4,0.2-5.4,0.2c-0.4,0-0.4-0.4,0-0.4h1c2.4,0,2.6-0.2,2.6-12v-4h-8.5
	c-3.5,0-7.1,0-8.9-0.1v4.1c0,11.8,0.2,12,2.6,12h1c0.4,0,0.4,0.4,0,0.4c-1.4,0-4.7-0.2-5.3-0.2s-3.8,0.2-5.1,0.2
	c-0.4,0-0.4-0.4,0-0.4h0.6c2.4,0,2.6-0.2,2.6-12L209,17.8z"/>
<path class="st0" d="M257.6,4.9c9.4,0,16.9,7.6,16.9,17c0,0,0,0,0,0V22c0,9.5-7.7,17.1-17.2,17.1c-9.3,0-16.8-7.6-16.8-16.9
	c0,0,0,0,0,0V22c-0.1-9.4,7.5-17,16.9-17.1c0,0,0,0,0,0H257.6z M257.2,38.6c7.8,0,13.1-6.8,13.1-16.6s-4.6-16.7-12.4-16.7
	s-12.9,6.8-12.9,16.6S249.3,38.6,257.2,38.6z"/>
<path class="st0" d="M304.4,17.8c0-11.8-3-12-5.4-12h-0.4c-0.4,0-0.4-0.4,0-0.4c1.4,0,5.4,0.1,6.1,0.1s2.5-0.1,3.8-0.1
	c0.4,0,0.4,0.4,0,0.4h-0.3c-2.3,0-3.1,0.2-3.1,12v9.1c0,6.4-4.5,12.2-12.2,12.2c-7,0-11.5-4.7-11.5-12.6v-8.7c0-11.8-0.2-12-2.5-12
	h-0.7c-0.4,0-0.4-0.4,0-0.4c1.3,0,4.4,0.1,5.1,0.1s3.9-0.1,5.3-0.1c0.4,0,0.4,0.4,0,0.4h-0.9c-2.4,0-2.6,0.2-2.6,12v7.4
	c0,7.8,4,12.3,10.3,12.3c5.1,0,9.1-4.7,9.1-10.7L304.4,17.8z"/>
<path class="st0" d="M333.3,6.1c0.3,0.1,0.5,0.1,0.5,0.5c0.1,1-0.3,4.1-0.3,11.7c0,0.6-0.5,0.6-0.5,0c0.1-7.4-1.2-13-10.2-13
	c-5.9,0-8.2,2.7-8.2,6.4c0,4.6,4.9,6.6,9.9,8.7s10,4.3,10,9.5c0,5.5-4.7,9.2-10.5,9.2c-3.8,0.1-7.5-0.4-11.2-1.4
	c-0.4-0.1-0.5-0.2-0.5-0.5c0-2.2,0-9.9,0-12.3c0-0.7,0.5-0.7,0.5,0c0,8.9,3.2,13.7,11.2,13.7c5.3,0,7.6-2.7,7.6-6.5
	c0-4.7-4.8-6.6-9.7-8.7c-5.1-2.1-10.4-4.4-10.4-9.5c0-5.7,5.1-9.1,11.2-9.1C326.3,4.9,329.9,5.3,333.3,6.1z"/>
<path class="st0" d="M345.1,21.1h4c6,0,7.3-2.2,7.3-5.5v-1c0-0.1,0.1-0.2,0.2-0.2c0.1,0,0.2,0.1,0.2,0.2c0,1.4-0.2,6.1-0.2,6.8
	s0.2,5.9,0.2,6.6c0,0.1-0.1,0.2-0.2,0.2c-0.1,0-0.2-0.1-0.2-0.2v-0.7c0-3.3-1.3-5.6-7.3-5.6h-4v9.2c0.1,2.3-0.1,4.7-0.4,7
	c1.4,0,7.6,0.2,9.1,0.2c5.6,0,9.5-4.8,10.1-9.7l0.3-2.5c0-0.3,0.6-0.3,0.5,0l-0.3,2.6c-0.9,7.8-1.1,9.6-1.5,9.9s-3.1,0.2-6.4,0.2
	s-12.1-0.2-12.1-0.2l-6.8,0.2c-0.5,0-0.5-0.3,0-0.3c2.8,0,3.2-0.3,3.6-6.4c0.2-3.3,0.2-9.7,0.2-14.1c0-11.8-0.4-12-2.8-12h-0.9
	c-0.4,0-0.4-0.4,0-0.4c1.3,0,4.6,0.1,5.3,0.1s15.2-0.1,16.9-0.1c0.8,0,1.5,0,2.3,0.2c0.2,0.1,0.7,3.6,1.4,8.8l0.2,1.7
	c0.1,0.3-0.4,0.3-0.5,0l-0.2-1.7c-0.9-5.3-4.7-8.3-10.1-8.4H347c-2.2,0-1.8,0-1.8,11.9L345.1,21.1z"/>
<path class="st0" d="M24.1,6.1c0.3,0.1,0.5,0.2,0.5,0.5c0.1,1-0.3,4.1-0.3,11.7c0,0.6-0.5,0.6-0.5,0c0.1-7.4-1.2-13-10.2-13
	c-5.9,0-8.2,2.7-8.2,6.4c0,4.6,5,6.6,9.9,8.7s10,4.3,10,9.5c0,5.5-4.7,9.2-10.5,9.2c-3.8,0.1-7.5-0.4-11.2-1.5
	c-0.4-0.1-0.5-0.2-0.5-0.5c0-2.2,0-9.9,0-12.3c0-0.7,0.5-0.7,0.5,0c0,8.9,3.2,13.7,11.2,13.7c5.3,0,7.6-2.7,7.6-6.5
	c0-4.7-4.8-6.6-9.7-8.7C7.6,21.3,2.4,19.1,2.4,14c0-5.7,5.1-9.1,11.2-9.1C17.1,4.9,20.6,5.3,24.1,6.1z"/>
<path class="st0" d="M45.6,4.9c9.4,0,16.9,7.6,16.9,17c0,0,0,0,0,0V22c0,9.5-7.7,17.1-17.2,17.1c-9.3,0-16.8-7.6-16.8-16.9
	c0,0,0,0,0,0V22c-0.1-9.4,7.5-17.1,16.9-17.1c0,0,0,0,0,0H45.6z M45.1,38.6c7.8,0,13.1-6.8,13.1-16.6S53.6,5.3,45.8,5.3
	S32.9,12.1,32.9,22S37.3,38.6,45.1,38.6z"/>
</svg>
