<svg id="Layer_1" data-name="Layer 1" xmlns="http://www.w3.org/2000/svg" viewBox="0 0 367.15 43.52"><defs><style>.cls-1{fill:#fff;}</style></defs><title>SH_wordmark_white_svg</title><path class="cls-1" d="M66.37,38.64c8,0,11.76-5.09,12.52-12.82h.39L78.7,37a32.07,32.07,0,0,1-12.24,2.12c-10.32,0-18.19-7.25-18.19-17.09,0-10,8.49-17.14,18.38-17.14A35.62,35.62,0,0,1,78.61,7l.57,10.47h-.43c-.77-7.64-4.56-12.1-12-12.1-8.64,0-14.16,6.77-14.16,16.66S57.63,38.64,66.37,38.64Z"/><path class="cls-1" d="M87.87,17.8c0-11.81-.24-12-2.59-12h-1c-.39,0-.39-.43,0-.43,1.34,0,4.8.14,5.47.14s4.08-.14,5.42-.14c.39,0,.39.43,0,.43h-1c-2.36,0-2.6.19-2.6,12v8.4c0,11.81.24,12,2.6,12h1c.39,0,.39.44,0,.44-1.34,0-4.7-.15-5.42-.15s-4.13.15-5.47.15c-.39,0-.39-.44,0-.44h1c2.35,0,2.59-.19,2.59-12Z"/><path class="cls-1" d="M105.15,21.11h4c6,0,7.3-2.2,7.3-5.52v-1a.24.24,0,1,1,.48,0c0,1.4-.24,6.1-.24,6.82s.24,5.86.24,6.58a.24.24,0,1,1-.48,0v-.72c0-3.31-1.3-5.57-7.3-5.57h-4v9.22a42.11,42.11,0,0,1-.39,7.05c1.4,0,7.59.15,9.08.15,5.56,0,9.5-4.8,10.12-9.7l.29-2.54c0-.29.58-.29.53,0l-.29,2.6c-.86,7.82-1.15,9.65-1.49,9.93-.19.2-3.07.2-6.38.2s-12.14-.15-12.14-.15l-6.77.15c-.48,0-.48-.34,0-.34,2.78,0,3.21-.34,3.6-6.39.24-3.31.19-9.69.19-14.11,0-11.81-.43-12-2.79-12h-.86c-.38,0-.38-.43,0-.43,1.34,0,4.61.14,5.33.14s15.17-.14,16.9-.14a8.79,8.79,0,0,1,2.25.19c.24.14.67,3.65,1.39,8.83l.2,1.73c.09.34-.39.29-.48,0l-.24-1.73C122.28,9,118.54,6,113.07,5.94H107c-2.21,0-1.82,0-1.82,11.86Z"/><path class="cls-1" d="M144.94,26.2c0,11.81.24,12,2.59,12h.87c.38,0,.38.44,0,.44-1.35,0-4.61-.15-5.28-.15s-4,.15-5.33.15c-.39,0-.39-.44,0-.44h.86c2.35,0,2.59-.19,2.59-12V5.32c-1.34,0-2.83,0-3.93,0-5.14,0-7,3.55-7.92,9.79L129,17.9c-.09.29-.57.33-.48,0l.39-2.74c.67-5.18.24-9.79.52-9.94a31.69,31.69,0,0,1,5.86-.33c1.2,0,5.67.09,7.78.09s2.88-.09,7.73-.09h0a31.6,31.6,0,0,1,5.86.33c.29.15-.14,4.76.58,9.94l.33,2.74c.1.33-.33.29-.43,0l-.43-2.74c-1-6.24-2.79-9.79-8-9.84h-3.84Z"/><path class="cls-1" d="M176.09,23.42V26.2c0,11.81.24,12,2.59,12h.87c.38,0,.38.44,0,.44-1.35,0-4.52-.15-5.24-.15s-3.93.15-5.28.15c-.38,0-.38-.44,0-.44h.87c2.35,0,2.59-.19,2.59-12V23.56l-5.18-9.36c-3.7-6.67-4.95-8.4-7.4-8.4h-.38c-.24,0-.34-.1-.34-.19s.1-.24.29-.24c1.39,0,4,.14,4.75.14s4.42-.14,5.81-.14c.39,0,.53.43.15.43h-1c-2.4,0-1.59,2.06,2,8.64l4.56,8.4,5.09-8.78c1.11-1.88,4.08-8.31-.57-8.31-.39,0-1.15.19-1.35.19s-.33-.14-.33-.28.09-.29.57-.29c.87,0,4.23.09,5,.09.63,0,4-.09,5.24-.09.38,0,.24.43-.1.43h-.1c-2.73,0-6.86,6.62-7.87,8.4Z"/><path class="cls-1" d="M209,17.8c0-11.81-.24-12-2.6-12h-.62c-.38,0-.38-.43,0-.43,1.34,0,4.37.14,5.09.14s4-.14,5.33-.14c.38,0,.38.43,0,.43h-1c-2.35,0-2.59.19-2.59,12v3.84l8.83-.09,8.54.14V17.8c0-11.81-.24-12-2.59-12h-1c-.38,0-.38-.43,0-.43,1.39,0,4.66.14,5.38.14s3.79-.14,5.18-.14c.39,0,.39.43,0,.43h-.76c-2.31,0-2.55.19-2.55,12v8.4c0,11.81.24,12,2.55,12H237c.39,0,.39.44,0,.44-1.39,0-4.46-.15-5.18-.15s-4,.15-5.38.15c-.38,0-.38-.44,0-.44h1c2.35,0,2.59-.19,2.59-12v-4l-8.49,0c-3.46,0-7.06,0-8.88-.1V26.2c0,11.81.24,12,2.59,12h1c.38,0,.38.44,0,.44-1.35,0-4.66-.15-5.33-.15s-3.75.15-5.09.15c-.38,0-.38-.44,0-.44h.62c2.36,0,2.6-.19,2.6-12Z"/><path class="cls-1" d="M257.64,4.89A16.94,16.94,0,0,1,274.54,22a17.18,17.18,0,0,1-17.19,17.09A16.81,16.81,0,0,1,240.6,22,17,17,0,0,1,257.64,4.89Zm-.48,33.75c7.83,0,13.11-6.77,13.11-16.61S265.66,5.37,257.83,5.37,244.92,12.14,244.92,22,249.34,38.64,257.16,38.64Z"/><path class="cls-1" d="M304.35,17.8c0-11.81-3-12-5.38-12h-.43c-.39,0-.39-.43,0-.43,1.39,0,5.37.14,6.09.14s2.5-.14,3.84-.14c.39,0,.39.43,0,.43h-.33c-2.31,0-3.12.19-3.12,12v9.12c0,6.43-4.47,12.2-12.19,12.2-7,0-11.48-4.71-11.48-12.58V17.8c0-11.81-.24-12-2.54-12h-.67c-.39,0-.39-.43,0-.43,1.34,0,4.36.14,5.08.14s3.94-.14,5.28-.14c.39,0,.39.43,0,.43h-.86c-2.35,0-2.59.19-2.64,12L285,25.24c0,7.78,4,12.34,10.28,12.34,5.13,0,9.12-4.71,9.12-10.66Z"/><path class="cls-1" d="M333.29,6.14c.34.09.48.14.53.52.09,1-.29,4.13-.29,11.72,0,.62-.48.62-.48,0,.1-7.4-1.25-13-10.22-13-5.86,0-8.21,2.73-8.21,6.38,0,4.61,4.94,6.58,9.88,8.69s10,4.27,10,9.46c0,5.52-4.71,9.22-10.47,9.22a37.3,37.3,0,0,1-11.18-1.44c-.43-.1-.48-.2-.48-.48,0-2.21-.05-9.94-.05-12.29,0-.68.53-.68.53,0,0,8.92,3.21,13.73,11.18,13.73,5.28,0,7.59-2.69,7.59-6.49,0-4.7-4.8-6.62-9.7-8.68-5.14-2.12-10.37-4.37-10.37-9.46,0-5.71,5.14-9.12,11.24-9.12A41.85,41.85,0,0,1,333.29,6.14Z"/><path class="cls-1" d="M345.14,21.11h4c6,0,7.3-2.2,7.3-5.52v-1a.24.24,0,1,1,.48,0c0,1.4-.24,6.1-.24,6.82s.24,5.86.24,6.58a.24.24,0,1,1-.48,0v-.72c0-3.31-1.3-5.57-7.3-5.57h-4v9.22a43.81,43.81,0,0,1-.38,7.05c1.39,0,7.58.15,9.07.15,5.57,0,9.51-4.8,10.13-9.7l.29-2.54c.05-.29.58-.29.53,0l-.29,2.6c-.86,7.82-1.15,9.65-1.49,9.93s-3.07.2-6.38.2-12.15-.15-12.15-.15l-6.77.15c-.48,0-.48-.34,0-.34,2.79,0,3.22-.34,3.6-6.39.24-3.31.2-9.69.2-14.11,0-11.81-.44-12-2.79-12h-.86c-.39,0-.39-.43,0-.43,1.34,0,4.61.14,5.33.14s15.17-.14,16.89-.14a8.83,8.83,0,0,1,2.26.19c.24.14.67,3.65,1.39,8.83l.19,1.73c.1.34-.38.29-.48,0l-.24-1.73C362.28,9,358.54,6,353.07,5.94H347c-2.21,0-1.83,0-1.83,11.86Z"/><path class="cls-1" d="M24.07,6.12c.33.1.47.15.52.53.1,1-.29,4.13-.29,11.71,0,.63-.48.63-.48,0,.1-7.39-1.24-13-10.22-13-5.86,0-8.21,2.74-8.21,6.39,0,4.61,5,6.57,9.89,8.69s10,4.27,10,9.45c0,5.52-4.7,9.22-10.46,9.22A37.32,37.32,0,0,1,3.66,37.66c-.43-.1-.48-.19-.48-.48,0-2.21-.05-9.94-.05-12.29,0-.67.53-.67.53,0,0,8.93,3.22,13.73,11.19,13.73,5.28,0,7.58-2.69,7.58-6.48,0-4.7-4.8-6.62-9.69-8.69C7.6,21.34,2.37,19.08,2.37,14c0-5.71,5.13-9.12,11.23-9.12A42.42,42.42,0,0,1,24.07,6.12Z"/><path class="cls-1" d="M45.62,4.87A16.94,16.94,0,0,1,62.51,22,17.17,17.17,0,0,1,45.33,39.1,16.82,16.82,0,0,1,28.57,22,17,17,0,0,1,45.62,4.87Zm-.48,33.75c7.82,0,13.1-6.77,13.1-16.61S53.63,5.35,45.81,5.35,32.89,12.12,32.89,22,37.31,38.62,45.14,38.62Z"/></svg>