<svg id="Layer_1" data-name="Layer 1" xmlns="http://www.w3.org/2000/svg" viewBox="0 0 235.51 235.51"><defs><style>.cls-1{fill:#fff;}</style></defs><title>society_house_logo_radial</title><path class="cls-1" d="M136.74,89.36c.59.17.85.26.93.94.17,1.7-.5,7.3-.5,20.73,0,1.1-.85,1.1-.85,0,.17-13.09-2.22-23-18.1-23-10.37,0-14.53,4.85-14.53,11.31,0,8.16,8.76,11.64,17.51,15.37S139,122.24,139,131.42c0,9.77-8.32,16.32-18.52,16.32a65.73,65.73,0,0,1-19.79-2.54c-.77-.17-.86-.34-.86-.85,0-3.91-.09-17.59-.09-21.75,0-1.19.93-1.19.93,0,0,15.8,5.71,24.3,19.81,24.29,9.35,0,13.42-4.76,13.42-11.48,0-8.32-8.5-11.72-17.17-15.37-9.09-3.73-18.35-7.72-18.36-16.72,0-10.12,9.08-16.15,19.87-16.16A75,75,0,0,1,136.74,89.36Z"/><path class="cls-1" d="M101.29,115.27a49.72,49.72,0,0,0,6.21,3.21l0,0h-18v38.72a4.77,4.77,0,0,0,1.89,4.17H83a4.76,4.76,0,0,0,1.88-4.17l0-79A4.76,4.76,0,0,0,83,74h8.34a4.74,4.74,0,0,0-1.88,4.17v37.1h11.79Z"/><path class="cls-1" d="M129.5,115.2c2.39,1,4.4,2.16,6.62,3.31l0-.06h11.3l0,38.72a4.79,4.79,0,0,1-1.88,4.17h8.33a4.79,4.79,0,0,1-1.88-4.17l0-79a4.79,4.79,0,0,1,1.88-4.17H145.5a4.79,4.79,0,0,1,1.88,4.17l0,37.11-18,0Z"/><path class="cls-1" d="M21.2,153.76a25,25,0,0,0,1.27,3.61c2.4,5.34,5.87,6.1,9.55,4.45a4.67,4.67,0,0,0,2.54-6c-.86-1.89-3.8-2.36-4.12-3.06s.95-.85,1-.85c3.31,3.68,7.11,5.51,10,4.21,2.34-1,3.55-3,2.24-5.95-1.38-3.07-4.68-4.39-10-2-.26.12-.38-.14-.12-.26,3.45-1.55,5.36-2.69,5.77-2.87s.62-.25.78,0A24.59,24.59,0,0,1,44.44,151c1.5,3.33.9,6.3-1.42,7.37s-5.51-1.17-9-3.72a9.47,9.47,0,0,1,1.64,2.24,5.34,5.34,0,0,1-2.79,7.47c-3.33,1.49-7.52.61-10-4.88A34.77,34.77,0,0,1,21,153.94C20.87,153.49,21.11,153.49,21.2,153.76Z"/><path class="cls-1" d="M30.92,173.21a24.33,24.33,0,0,0,2,3.26c3.47,4.71,7,4.72,10.26,2.33a4.65,4.65,0,0,0,1.22-6.38c-1.23-1.68-4.21-1.51-4.66-2.13s.75-1,.82-1c4,2.89,8.11,3.88,10.66,2,2.06-1.51,2.83-3.71.93-6.29s-5.49-3.3-10.21.17c-.23.17-.4-.06-.17-.23,3-2.24,4.67-3.76,5-4s.56-.37.77-.14A24.8,24.8,0,0,1,53,165.58c2.16,2.94,2.21,6,.16,7.51s-5.63,0-9.62-1.74a9.28,9.28,0,0,1,2.08,1.85,5.34,5.34,0,0,1-1.15,7.89c-2.94,2.16-7.22,2.17-10.79-2.67a34.38,34.38,0,0,1-3-5C30.53,173,30.77,173,30.92,173.21Z"/><path class="cls-1" d="M48.94,195.21a30.2,30.2,0,0,1-3.48-3.74c-.28-.37-.06-.48.14-.26a26.28,26.28,0,0,0,2.86,2.9c3.77,3.28,7.33,2.09,9.58-.49a5.56,5.56,0,0,0-.73-8.05c-1.67-1.45-3.54-1.63-6-1.69a.38.38,0,0,1-.17-.53l7-7.87a8,8,0,0,1,2.83.26c.49.42,2.79,2.5,3.9,3.47l3.77,3.27c.78.67,1,.92,1,1-.38.39-2.4,2-3.71,3.34l-1.61,1.62c-.15.16-.37,0-.24-.17l1.63-1.63c1.82-1.86,1.73-2.78-.67-4.9l-5.36-4.66-6.56,6.68a9.38,9.38,0,0,1,5.73,1.88c3.56,3.09,3.6,6.85,1.1,9.73S53.12,198.84,48.94,195.21Z"/><path class="cls-1" d="M117.66,209.08l2.65-.14c4-.21,4.78-1.72,4.67-3.93l0-.67c0-.25.31-.27.32,0,0,.93,0,4.07.08,4.55s.36,3.89.39,4.37c0,.26-.31.27-.32,0l0-.48c-.11-2.21-1-3.66-5-3.46l-2.65.14.32,6.14a28.73,28.73,0,0,1,0,4.71c.92-.05,5.05-.17,6-.22,3.71-.19,6.16-3.53,6.41-6.81l.1-1.7c0-.19.38-.21.36,0l-.11,1.74c-.3,5.24-.43,6.46-.64,6.67a29,29,0,0,1-4.25.35c-2.23.11-8.09.32-8.09.32l-4.5.33c-.32,0-.33-.21,0-.22,1.85-.1,2.13-.34,2.18-4.38,0-2.21-.21-6.46-.36-9.4-.41-7.86-.71-8-2.27-7.89l-.58,0c-.25,0-.27-.28,0-.29.89,0,3.07-.07,3.55-.09l11.24-.68a5.57,5.57,0,0,1,1.51,0,46.26,46.26,0,0,1,1.23,5.83l.19,1.15c.08.22-.24.2-.32,0l-.22-1.14c-.79-3.55-3.39-5.43-7-5.27l-4.06.21c-1.47.07-1.21.09-.81,8Z"/><path class="cls-1" d="M148,193.31c.23,0,.33,0,.44.23.25.6.63,2.69,2.13,7.52.13.39-.18.49-.3.09-1.4-4.72-3.37-8-9.08-6.26-3.73,1.16-4.69,3.37-4,5.69.91,2.94,4.44,3.21,8,3.58s7.23.73,8.26,4c1.09,3.52-1.17,6.8-4.84,7.94a24.88,24.88,0,0,1-7.41,1.29c-.29,0-.34,0-.4-.21-.43-1.4-2-6.31-2.46-7.81-.13-.43.2-.53.34-.1,1.76,5.68,4.76,8.1,9.83,6.52,3.36-1,4.3-3.21,3.55-5.62-.93-3-4.37-3.27-7.89-3.61-3.69-.33-7.47-.73-8.47-4-1.13-3.64,1.46-6.82,5.34-8A28.43,28.43,0,0,1,148,193.31Z"/><path class="cls-1" d="M167.6,197.88c4.11,6.72,4.31,6.74,5.65,5.92l.49-.3c.22-.13.37.11.15.25-.76.47-2.67,1.52-3,1.75s-2.22,1.47-3,1.94c-.22.13-.37-.11-.15-.25l.49-.29c1.34-.82,1.41-1-2.7-7.73l-7.27-11.88c-.75.5-1.6,1-2.22,1.4-2.92,1.79-2.73,4.45-1.1,8.33l.74,1.69c0,.19-.22.39-.28.16l-.73-1.68c-1.42-3.19-3.27-5.66-3.16-5.84a20.39,20.39,0,0,1,3.21-2.23c.68-.41,3.26-1.91,4.46-2.65s1.6-1.06,4.36-2.75h0a20.37,20.37,0,0,1,3.44-1.85c.22,0,1.58,2.75,3.79,5.45l1.14,1.44c.17.15-.09.28-.24.15l-1.2-1.41c-2.72-3.21-5-4.6-8-2.82L160.33,186Z"/><path class="cls-1" d="M195.59,184.23a25.61,25.61,0,0,0,2.52-2.87c3.49-4.71,2.46-8.1-.78-10.5a4.65,4.65,0,0,0-6.46.71c-1.24,1.67-.21,4.47-.67,5.08s-1.2-.41-1.23-.48c1.59-4.67,1.33-8.89-1.22-10.77-2.06-1.53-4.38-1.62-6.29,1s-1.54,6.22,3.17,9.71c.23.17.06.4-.18.23-3-2.25-5-3.36-5.32-3.63s-.52-.42-.35-.7a24.69,24.69,0,0,1,3-6.65c2.17-2.93,5.05-3.86,7.13-2.36s1.67,5.38,1.17,9.71a9.11,9.11,0,0,1,1.16-2.53,5.32,5.32,0,0,1,7.87-1.22c2.93,2.17,4.2,6.26.62,11.1a35.57,35.57,0,0,1-3.88,4.33C195.51,184.65,195.39,184.44,195.59,184.23Z"/><path class="cls-1" d="M211.32,160.52a30.18,30.18,0,0,1-2.55,4.44c-.27.37-.44.19-.29-.06a27.46,27.46,0,0,0,1.93-3.59c2-4.57-.17-7.63-3.3-9a5.56,5.56,0,0,0-7.47,3.07c-.89,2-.52,3.87.14,6.18,0,.19-.28.4-.46.33l-9.56-4.32a8,8,0,0,1-.6-2.79c.26-.58,1.57-3.39,2.17-4.74l2-4.57c.41-.94.59-1.24.67-1.2.49.24,2.65,1.69,4.3,2.55l2,1.07c.21.09.09.35-.09.27l-2-1.07c-2.31-1.2-3.16-.84-4.48,2.08l-2.87,6.49,8.32,4.3a9.33,9.33,0,0,1,.11-6c1.89-4.3,5.48-5.45,9-3.91S213.55,155.46,211.32,160.52Z"/><path class="cls-1" d="M18.48,88c.12-.21.18-.3.44-.27.66.09,2.72.85,7.79,2.05.42.1.34.42-.07.32-4.94-1.23-8.91-1.22-10.33,4.78-.92,3.92.53,5.93,3,6.51,3.08.72,5.18-2.27,7.37-5.25s4.45-6,7.92-5.21c3.69.87,5.42,4.6,4.51,8.46a25.76,25.76,0,0,1-2.73,7.25c-.14.28-.21.29-.4.25L27.73,105c-.45-.11-.37-.46.08-.36,6,1.42,9.7,0,11-5.31.83-3.53-.6-5.5-3.14-6.1-3.14-.74-5.19,2.17-7.35,5.11-2.22,3.11-4.56,6.25-8,5.45-3.83-.91-5.29-4.88-4.33-9A29.1,29.1,0,0,1,18.48,88Z"/><path class="cls-1" d="M25.74,69.24a11.65,11.65,0,0,1,15.89-4.61,11.81,11.81,0,0,1,4.71,16,11.77,11.77,0,0,1-20.6-11.37ZM46,80.57c2.56-4.73.19-10.14-5.76-13.36s-11.58-2.66-14.14,2.07-.13,10,5.85,13.26S43.43,85.3,46,80.57Z"/><path class="cls-1" d="M53.45,69.06c3.31-4.4,2.06-8.56-1.87-12.18l.16-.21,5.91,4.94a22.24,22.24,0,0,1-3.89,7.6c-4.26,5.67-11.5,7-16.91,2.94S30.94,60.4,35,55a24.37,24.37,0,0,1,6.1-5.7l6,4-.18.24c-4.51-2.73-8.53-2.49-11.6,1.6-3.57,4.75-2.13,10.58,3.3,14.67S49.85,73.87,53.45,69.06Z"/><path class="cls-1" d="M52.51,49c-5.45-6-5.66-6-6.86-4.92l-.51.47c-.2.18-.4,0-.2-.22.68-.62,2.51-2.14,2.85-2.45s2-2,2.7-2.58c.19-.18.39,0,.2.22l-.52.46C49,41,48.94,41.24,54.39,47.26l3.88,4.27c5.45,6,5.66,6,6.86,4.92l.51-.46c.2-.18.4,0,.2.22-.68.62-2.46,2.1-2.83,2.43s-2,2-2.72,2.6c-.19.17-.39-.05-.2-.22l.52-.47c1.19-1.08,1.23-1.29-4.22-7.31Z"/><path class="cls-1" d="M66,41.08l2.36-1.4c3.54-2.11,3.53-3.87,2.37-5.82l-.35-.6c-.14-.23.15-.39.28-.17.49.82,2,3.69,2.25,4.11s2.2,3.38,2.45,3.81c.14.23-.15.39-.28.17l-.25-.43c-1.17-2-2.73-2.83-6.27-.73l-2.36,1.4,3.24,5.45a29.49,29.49,0,0,1,2.25,4.31c.82-.49,4.53-2.58,5.41-3.1,3.29-2,3.94-6.18,2.59-9.29L79,37.18c-.07-.19.24-.37.33-.16L80,38.66c2.24,4.93,2.71,6.11,2.61,6.39a27.1,27.1,0,0,1-3.71,2.36c-2,1.18-7.23,4.18-7.23,4.18l-4,2.46c-.28.17-.4,0-.11-.2,1.64-1,1.78-1.33-.12-5-1-2-3.29-5.79-4.84-8.41-4.15-7-4.47-6.94-5.86-6.11l-.51.3c-.23.14-.38-.12-.15-.25.79-.48,2.77-1.54,3.2-1.79s8.91-5.41,9.94-6a6.26,6.26,0,0,1,1.4-.68,49.1,49.1,0,0,1,3.92,4.74l.72.95c.18.17-.12.31-.28.17l-.75-.94c-2.43-2.86-5.7-3.33-9-1.44l-3.61,2.14c-1.3.78-1.06.67,3.09,7.65Z"/><path class="cls-1" d="M92.76,32.66c2.34,7.77,2.54,7.85,4.09,7.38l.57-.17c.25-.07.34.21.08.29-.88.26-3.06.82-3.5,1s-2.59.89-3.48,1.15c-.25.08-.34-.2-.09-.28l.57-.17c1.55-.47,1.67-.64-.67-8.41L86.18,19.65c-.88.3-1.86.6-2.58.82-3.38,1-3.88,3.72-3.27,8l.29,1.88c0,.21-.31.34-.32.1L80,28.58c-.58-3.55-1.78-6.49-1.62-6.64a20.61,20.61,0,0,1,3.78-1.39c.79-.24,3.75-1.06,5.14-1.48s1.88-.64,5.07-1.6h0a20.69,20.69,0,0,1,3.92-.94c.22,0,.85,3.16,2.35,6.42l.77,1.74c.13.2-.16.26-.28.08l-.83-1.71c-1.87-3.92-3.78-5.89-7.2-4.89l-2.53.76Z"/><path class="cls-1" d="M114,27.37l.1,1.91c.42,8.11.59,8.23,2.21,8.15l.59,0c.27,0,.28.28,0,.29-.92.05-3.1.07-3.6.09s-2.7.24-3.62.29c-.26,0-.28-.28,0-.3l.59,0c1.61-.08,1.77-.22,1.35-8.33l-.09-1.81-3.9-6.24c-2.77-4.45-3.69-5.59-5.37-5.5H102c-.17,0-.24,0-.24-.12s.06-.17.19-.17c.95-.05,2.77,0,3.26-.07s3-.26,4-.31c.26,0,.37.28.11.29l-.69,0c-1.65.08-1,1.47,1.69,5.86l3.43,5.6,3.18-6.21c.69-1.33,2.5-5.85-.69-5.68-.27,0-.79.17-.92.18a.21.21,0,0,1-.24-.19c0-.1.06-.2.39-.21.59,0,2.9-.09,3.46-.12s2.76-.21,3.59-.25c.26,0,.18.29,0,.3h-.07c-1.88.1-4.47,4.79-5.1,6Z"/><path class="cls-1" d="M138.53,25.42c2.48-7.73,2.36-7.91.83-8.4l-.41-.13c-.25-.08-.16-.37.09-.29.88.28,2.83,1,3.3,1.16s2.64.75,3.51,1c.26.08.17.37-.09.29l-.62-.21c-1.54-.49-1.74-.42-4.22,7.31l-.81,2.52,5.8,1.79,5.56,1.89.82-2.54c2.48-7.73,2.36-7.91.83-8.4l-.66-.22c-.26-.08-.16-.36.09-.28.91.29,3,1.07,3.48,1.22s2.52.7,3.43,1c.25.08.16.37-.09.28l-.51-.16c-1.5-.48-1.7-.41-4.18,7.32l-1.77,5.5c-2.48,7.73-2.36,7.9-.86,8.39l.51.16c.25.08.16.36-.09.28-.92-.29-2.9-1-3.37-1.18s-2.63-.75-3.55-1c-.25-.08-.16-.36.09-.28l.66.21c1.54.5,1.74.42,4.22-7.31l.85-2.64-5.57-1.75c-2.26-.73-4.61-1.51-5.79-1.93l-.86,2.67c-2.48,7.73-2.36,7.9-.82,8.4l.62.2c.26.08.16.36-.09.28-.88-.28-3-1.07-3.45-1.21s-2.48-.69-3.36-1c-.26-.08-.16-.36.09-.28l.4.13c1.54.5,1.74.42,4.22-7.31Z"/><path class="cls-1" d="M175.69,32.38a11.65,11.65,0,0,1,3,16.26,11.81,11.81,0,0,1-16.37,3.13,11.77,11.77,0,0,1,13.33-19.39Zm-13.25,19c4.46,3,10.07,1.19,13.85-4.42s3.78-11.27-.68-14.28-10-1.1-13.76,4.53S158,48.42,162.44,51.42Z"/><path class="cls-1" d="M195.23,63.16c6.2-5.24,5-6.91,3.91-8.15l-.19-.22c-.17-.21.05-.4.23-.2.61.73,2.31,2.89,2.63,3.26s1.18,1.25,1.78,2c.17.2-.06.39-.23.19l-.15-.18c-1-1.21-1.49-1.55-7.68,3.69l-4.79,4.05a8.08,8.08,0,0,1-11.81-1c-3.09-3.65-2.63-8.1,1.51-11.6L185,51.09c6.2-5.24,6.19-5.45,5.17-6.66l-.3-.35c-.17-.2.06-.4.23-.19.6.7,1.86,2.35,2.18,2.73s1.83,2,2.42,2.71c.17.2-.05.39-.22.19l-.39-.45c-1-1.24-1.25-1.28-7.47,3.94l-3.93,3.28c-4.08,3.45-4.7,7.56-1.91,10.86,2.28,2.7,6.52,2.7,9.64.06Z"/><path class="cls-1" d="M212.78,78.27c.05.23.06.33-.16.48-.56.36-2.62,1.11-7.26,3.48-.39.19-.54-.1-.15-.29,4.56-2.25,7.58-4.83,4.78-10.33-1.83-3.58-4.24-4.17-6.47-3-2.83,1.43-2.49,5.08-2.24,8.76s.51,7.48-2.67,9.1c-3.38,1.72-7.11,0-8.91-3.54a25.29,25.29,0,0,1-2.6-7.3c-.08-.29,0-.35.14-.44,1.35-.69,6.07-3.13,7.51-3.86.42-.21.58.11.17.32-5.47,2.78-7.41,6.25-4.92,11.13,1.64,3.24,4,3.81,6.33,2.63,2.88-1.47,2.56-5,2.3-8.65-.31-3.81-.56-7.72,2.56-9.3,3.5-1.78,7.19.3,9.09,4A28.86,28.86,0,0,1,212.78,78.27Z"/><path class="cls-1" d="M206.55,91.59l.67,2.66c1,4,2.69,4.49,4.9,3.94l.67-.17c.26-.06.34.26.08.32-.93.23-4.11.86-4.59,1s-3.86,1.14-4.34,1.26c-.26.06-.34-.26-.08-.32l.48-.12c2.21-.55,3.49-1.8,2.49-5.8l-.67-2.65L200,93.23a30.93,30.93,0,0,1-4.77.92c.23.93,1.17,5.08,1.42,6.07.93,3.72,4.79,5.54,8.16,5.14l1.74-.24c.2,0,.29.34.06.36l-1.78.25c-5.36.73-6.62.84-6.87.67a29.29,29.29,0,0,1-1.2-4.23c-.56-2.24-1.93-8.12-1.93-8.12l-1.23-4.49c-.08-.32.14-.38.23-.06.46,1.86.76,2.09,4.85,1.33,2.25-.39,6.5-1.49,9.45-2.23,7.87-2,7.93-2.29,7.54-3.86l-.15-.58c-.06-.25.23-.33.29-.07.23.9.67,3.1.79,3.58s2.64,10.09,2.93,11.24a6.56,6.56,0,0,1,.25,1.54,49.67,49.67,0,0,1-5.66,2.4l-1.12.42c-.21.12-.26-.21-.08-.32l1.11-.45c3.43-1.51,4.82-4.51,3.94-8.17l-1-4.06c-.37-1.47-.34-1.21-8.21.77Z"/><circle class="cls-1" cx="24.54" cy="129.03" r="2.44"/><circle class="cls-1" cx="208.54" cy="129.03" r="2.44"/><path class="cls-1" d="M91,204.74l-.56-6.34c-.52-5.15-.64-5.29-2.16-5.78l-.24-.08c-.16,0-.2-.13-.18-.19s.11-.14.24-.1c.88.29,2.52.93,3,1.08s2.52.72,3.41,1c.24.08.15.36-.09.28l-.25-.08c-.58-.19-1.07-.22-1.28.42s-.34,1.27-.11,4.58l.32,3.47,2.24-2.64a11.69,11.69,0,0,0,2-3.2c.32-1,0-1.6-.59-1.81-.24-.08-.64-.11-.76-.15s-.16-.12-.13-.21.09-.17.39-.07c.55.18,2.32.82,2.81,1s2.39.71,3.12.95c.25.08.13.34-.08.27l-.8-.26c-1.52-.49-3.09.61-5.69,3.74l-2.53,2.91,1,11a.2.2,0,0,0,.1.2c.06,0,.11,0,.17-.11L103,204a15.17,15.17,0,0,0,2.53-4.16,1.44,1.44,0,0,0-1.05-2c-.25-.08-.77-.11-.89-.15s-.19-.16-.16-.25.12-.17.43-.07l3.38,1.17c.4.13,1.85.53,2.61.78.24.08.12.35-.09.28l-.09,0c-1.49-.49-3.33,1-6.32,4.74L92.86,217.14c0,.05-.09.07-.24,0l-.31-.09c-.18-.06-.17-.09-.18-.16l-1.07-11.62L83.19,214c0,.06-.09.08-.21,0l-.24-.08c-.19-.06-.21-.1-.22-.17l-.8-16.58c-.38-6.59-.61-6.9-2.22-7.42l-.06,0c-.16,0-.17-.12-.15-.18s.08-.15.2-.11c.89.29,2.35.87,2.8,1s3.41,1,4.29,1.3c.25.08.19.36,0,.28l-.8-.25c-.94-.31-1.41-.09-1.61.41s-.22,2.86,0,7.49l.58,11.56a.2.2,0,0,0,.1.2c.06,0,.12,0,.17-.11Z"/></svg>