<?xml version="1.0" encoding="utf-8"?>
<!-- Generator: Adobe Illustrator 23.0.1, SVG Export Plug-In . SVG Version: 6.00 Build 0)  -->
<svg version="1.1" id="Layer_1" xmlns="http://www.w3.org/2000/svg" xmlns:xlink="http://www.w3.org/1999/xlink" x="0px" y="0px"
	 viewBox="0 0 235.5 235.5" style="enable-background:new 0 0 235.5 235.5;" xml:space="preserve">
<style type="text/css">
	.st0{fill:#A02720;}
</style>
<title>society_house_logo_radial</title>
<path class="st0" d="M136.7,89.4c0.6,0.2,0.9,0.3,0.9,0.9c0.2,1.7-0.5,7.3-0.5,20.7c0,1.1-0.9,1.1-0.9,0c0.2-13.1-2.2-23-18.1-23
	c-10.4,0-14.5,4.8-14.5,11.3c0,8.2,8.8,11.6,17.5,15.4s17.8,7.5,17.8,16.7c0,9.8-8.3,16.3-18.5,16.3c-6.7,0.2-13.4-0.7-19.8-2.5
	c-0.8-0.2-0.9-0.3-0.9-0.9c0-3.9-0.1-17.6-0.1-21.8c0-1.2,0.9-1.2,0.9,0c0,15.8,5.7,24.3,19.8,24.3c9.4,0,13.4-4.8,13.4-11.5
	c0-8.3-8.5-11.7-17.2-15.4c-9.1-3.7-18.3-7.7-18.4-16.7c0-10.1,9.1-16.2,19.9-16.2C124.5,87.1,130.7,87.9,136.7,89.4z"/>
<path class="st0" d="M101.3,115.3c2,1.2,4.1,2.3,6.2,3.2l0,0h-18v38.7c-0.1,1.6,0.6,3.2,1.9,4.2H83c1.3-1,2-2.6,1.9-4.2v-79
	C85,76.6,84.3,75,83,74h8.3c-1.3,1-2,2.5-1.9,4.2v37.1H101.3L101.3,115.3z"/>
<path class="st0" d="M129.5,115.2c2.4,1,4.4,2.2,6.6,3.3v-0.1h11.3v38.7c0.1,1.6-0.6,3.2-1.9,4.2h8.3c-1.3-1-2-2.6-1.9-4.2v-79
	c-0.1-1.6,0.6-3.2,1.9-4.2h-8.4c1.3,1,2,2.6,1.9,4.2v37.1h-18L129.5,115.2z"/>
<path class="st0" d="M21.2,153.8c0.3,1.2,0.8,2.4,1.3,3.6c2.4,5.3,5.9,6.1,9.5,4.4c2.3-1,3.5-3.6,2.5-6c-0.9-1.9-3.8-2.4-4.1-3.1
	s1-0.9,1-0.9c3.3,3.7,7.1,5.5,10,4.2c2.3-1,3.5-3,2.2-5.9c-1.4-3.1-4.7-4.4-10-2c-0.3,0.1-0.4-0.1-0.1-0.3c3.5-1.6,5.4-2.7,5.8-2.9
	s0.6-0.2,0.8,0c1.7,1.8,3.2,3.8,4.3,6c1.5,3.3,0.9,6.3-1.4,7.4s-5.5-1.2-9-3.7c0.7,0.7,1.2,1.4,1.6,2.2c1.4,2.6,0.4,5.8-2.2,7.2
	c-0.2,0.1-0.4,0.2-0.6,0.3c-3.3,1.5-7.5,0.6-10-4.9c-0.8-1.8-1.4-3.6-1.9-5.5C20.9,153.5,21.1,153.5,21.2,153.8z"/>
<path class="st0" d="M30.9,173.2c0.6,1.1,1.2,2.2,2,3.3c3.5,4.7,7,4.7,10.3,2.3c2.1-1.4,2.6-4.3,1.2-6.4c-1.2-1.7-4.2-1.5-4.7-2.1
	s0.8-1,0.8-1c4,2.9,8.1,3.9,10.7,2c2.1-1.5,2.8-3.7,0.9-6.3s-5.5-3.3-10.2,0.2c-0.2,0.2-0.4-0.1-0.2-0.2c3-2.2,4.7-3.8,5-4
	s0.6-0.4,0.8-0.1c2,1.3,3.9,2.9,5.5,4.8c2.2,2.9,2.2,6,0.2,7.5s-5.6,0-9.6-1.7c0.8,0.5,1.5,1.1,2.1,1.9c1.9,2.3,1.6,5.6-0.7,7.5
	c-0.2,0.1-0.3,0.3-0.5,0.4c-2.9,2.2-7.2,2.2-10.8-2.7c-1.1-1.6-2.1-3.3-3-5C30.5,173,30.8,173,30.9,173.2z"/>
<path class="st0" d="M48.9,195.2c-1.3-1.1-2.4-2.4-3.5-3.7c-0.3-0.4-0.1-0.5,0.1-0.3c0.9,1,1.8,2,2.9,2.9c3.8,3.3,7.3,2.1,9.6-0.5
	c2-2.3,1.8-5.8-0.5-7.8c-0.1-0.1-0.2-0.1-0.2-0.2c-1.7-1.4-3.5-1.6-6-1.7c-0.2-0.1-0.3-0.3-0.2-0.5c0,0,0,0,0,0l7-7.9
	c1-0.1,1.9,0,2.8,0.3c0.5,0.4,2.8,2.5,3.9,3.5l3.8,3.3c0.8,0.7,1,0.9,1,1c-0.4,0.4-2.4,2-3.7,3.3l-1.6,1.6c-0.2,0.2-0.4,0-0.2-0.2
	l1.6-1.6c1.8-1.9,1.7-2.8-0.7-4.9l-5.4-4.7l-6.6,6.7c2.1,0,4.1,0.6,5.7,1.9c3.6,3.1,3.6,6.9,1.1,9.7S53.1,198.8,48.9,195.2z"/>
<path class="st0" d="M117.7,209.1l2.7-0.1c4-0.2,4.8-1.7,4.7-3.9v-0.7c0-0.2,0.3-0.3,0.3,0c0,0.9,0,4.1,0.1,4.6s0.4,3.9,0.4,4.4
	c0,0.3-0.3,0.3-0.3,0v-0.5c-0.1-2.2-1-3.7-5-3.5l-2.7,0.1l0.3,6.1c0.1,1.6,0.1,3.1,0,4.7c0.9-0.1,5.1-0.2,6-0.2
	c3.7-0.2,6.2-3.5,6.4-6.8l0.1-1.7c0-0.2,0.4-0.2,0.4,0l-0.1,1.7c-0.3,5.2-0.4,6.5-0.6,6.7c-1.4,0.2-2.8,0.3-4.2,0.4
	c-2.2,0.1-8.1,0.3-8.1,0.3l-4.5,0.3c-0.3,0-0.3-0.2,0-0.2c1.8-0.1,2.1-0.3,2.2-4.4c0-2.2-0.2-6.5-0.4-9.4c-0.4-7.9-0.7-8-2.3-7.9
	h-0.6c-0.2,0-0.3-0.3,0-0.3c0.9,0,3.1-0.1,3.6-0.1l11.2-0.7c0.5-0.1,1-0.1,1.5,0c0.5,1.9,0.9,3.9,1.2,5.8l0.2,1.1
	c0.1,0.2-0.2,0.2-0.3,0l-0.2-1.1c-0.8-3.6-3.4-5.4-7-5.3l-4.1,0.2c-1.5,0.1-1.2,0.1-0.8,8L117.7,209.1z"/>
<path class="st0" d="M148,193.3c0.2,0,0.3,0,0.4,0.2c0.2,0.6,0.6,2.7,2.1,7.5c0.1,0.4-0.2,0.5-0.3,0.1c-1.4-4.7-3.4-8-9.1-6.3
	c-3.7,1.2-4.7,3.4-4,5.7c0.9,2.9,4.4,3.2,8,3.6s7.2,0.7,8.3,4c1.1,3.5-1.2,6.8-4.8,7.9c-2.4,0.8-4.9,1.2-7.4,1.3
	c-0.3,0-0.3,0-0.4-0.2c-0.4-1.4-2-6.3-2.5-7.8c-0.1-0.4,0.2-0.5,0.3-0.1c1.8,5.7,4.8,8.1,9.8,6.5c3.4-1,4.3-3.2,3.6-5.6
	c-0.9-3-4.4-3.3-7.9-3.6c-3.7-0.3-7.5-0.7-8.5-4c-1.1-3.6,1.5-6.8,5.3-8C143.3,193.9,145.6,193.4,148,193.3z"/>
<path class="st0" d="M167.6,197.9c4.1,6.7,4.3,6.7,5.6,5.9l0.5-0.3c0.2-0.1,0.4,0.1,0.1,0.2c-0.8,0.5-2.7,1.5-3,1.8s-2.2,1.5-3,1.9
	c-0.2,0.1-0.4-0.1-0.1-0.2l0.5-0.3c1.3-0.8,1.4-1-2.7-7.7l-7.3-11.9c-0.8,0.5-1.6,1-2.2,1.4c-2.9,1.8-2.7,4.4-1.1,8.3l0.7,1.7
	c0,0.2-0.2,0.4-0.3,0.2l-0.7-1.7c-1.4-3.2-3.3-5.7-3.2-5.8c1-0.8,2.1-1.6,3.2-2.2c0.7-0.4,3.3-1.9,4.5-2.6s1.6-1.1,4.4-2.8l0,0
	c1.1-0.7,2.2-1.3,3.4-1.9c0.2,0,1.6,2.8,3.8,5.4l1.1,1.4c0.2,0.1-0.1,0.3-0.2,0.1l-1.2-1.4c-2.7-3.2-5-4.6-8-2.8l-2.1,1.3
	L167.6,197.9z"/>
<path class="st0" d="M195.6,184.2c0.9-0.9,1.8-1.9,2.5-2.9c3.5-4.7,2.5-8.1-0.8-10.5c-2-1.6-4.9-1.2-6.5,0.7
	c-1.2,1.7-0.2,4.5-0.7,5.1s-1.2-0.4-1.2-0.5c1.6-4.7,1.3-8.9-1.2-10.8c-2.1-1.5-4.4-1.6-6.3,1s-1.5,6.2,3.2,9.7
	c0.2,0.2,0.1,0.4-0.2,0.2c-3-2.2-5-3.4-5.3-3.6s-0.5-0.4-0.4-0.7c0.7-2.4,1.7-4.6,3-6.6c2.2-2.9,5.1-3.9,7.1-2.4s1.7,5.4,1.2,9.7
	c0.3-0.9,0.6-1.8,1.2-2.5c1.6-2.5,4.9-3.2,7.4-1.6c0.2,0.1,0.4,0.2,0.5,0.4c2.9,2.2,4.2,6.3,0.6,11.1c-1.2,1.5-2.5,3-3.9,4.3
	C195.5,184.6,195.4,184.4,195.6,184.2z"/>
<path class="st0" d="M211.3,160.5c-0.7,1.5-1.6,3-2.6,4.4c-0.3,0.4-0.4,0.2-0.3-0.1c0.7-1.1,1.4-2.3,1.9-3.6c2-4.6-0.2-7.6-3.3-9
	c-2.8-1.3-6.1,0-7.4,2.8c0,0.1-0.1,0.2-0.1,0.3c-0.9,2-0.5,3.9,0.1,6.2c0,0.2-0.3,0.4-0.5,0.3l-9.6-4.3c-0.4-0.9-0.6-1.8-0.6-2.8
	c0.3-0.6,1.6-3.4,2.2-4.7l2-4.6c0.4-0.9,0.6-1.2,0.7-1.2c0.5,0.2,2.6,1.7,4.3,2.6l2,1.1c0.2,0.1,0.1,0.4-0.1,0.3l-2-1.1
	c-2.3-1.2-3.2-0.8-4.5,2.1l-2.9,6.5l8.3,4.3c-0.6-2-0.6-4.1,0.1-6c1.9-4.3,5.5-5.4,9-3.9S213.6,155.5,211.3,160.5z"/>
<path class="st0" d="M18.5,88c0.1-0.2,0.2-0.3,0.4-0.3c0.7,0.1,2.7,0.8,7.8,2.1c0.4,0.1,0.3,0.4-0.1,0.3c-4.9-1.2-8.9-1.2-10.3,4.8
	c-0.9,3.9,0.5,5.9,3,6.5c3.1,0.7,5.2-2.3,7.4-5.2s4.5-6,7.9-5.2c3.7,0.9,5.4,4.6,4.5,8.5c-0.5,2.5-1.5,5-2.7,7.2
	c-0.1,0.3-0.2,0.3-0.4,0.2l-8.2-1.9c-0.5-0.1-0.4-0.5,0.1-0.4c6,1.4,9.7,0,11-5.3c0.8-3.5-0.6-5.5-3.1-6.1c-3.1-0.7-5.2,2.2-7.4,5.1
	c-2.2,3.1-4.6,6.2-8,5.4c-3.8-0.9-5.3-4.9-4.3-9C16.5,92.4,17.4,90.2,18.5,88z"/>
<path class="st0" d="M25.7,69.2c3.1-5.7,10.2-7.7,15.8-4.7c0,0,0.1,0,0.1,0c5.7,3.1,7.8,10.3,4.7,16c-3.3,5.6-10.5,7.4-16.1,4.1
	C24.9,81.6,22.9,74.8,25.7,69.2L25.7,69.2z M46,80.6c2.6-4.7,0.2-10.1-5.8-13.4s-11.6-2.7-14.1,2.1s-0.1,10,5.9,13.3
	S43.4,85.3,46,80.6z"/>
<path class="st0" d="M53.5,69.1c3.3-4.4,2.1-8.6-1.9-12.2l0.2-0.2l5.9,4.9c-0.8,2.8-2.1,5.3-3.9,7.6c-4.3,5.7-11.5,7-16.9,2.9
	S30.9,60.4,35,55c1.7-2.2,3.8-4.2,6.1-5.7l6,4l-0.2,0.2c-4.5-2.7-8.5-2.5-11.6,1.6c-3.6,4.8-2.1,10.6,3.3,14.7S49.8,73.9,53.5,69.1z
	"/>
<path class="st0" d="M52.5,49c-5.5-6-5.7-6-6.9-4.9l-0.5,0.5c-0.2,0.2-0.4,0-0.2-0.2c0.7-0.6,2.5-2.1,2.8-2.5s2-2,2.7-2.6
	c0.2-0.2,0.4,0,0.2,0.2L50.2,40c-1.2,1-1.2,1.3,4.2,7.3l3.9,4.3c5.5,6,5.7,6,6.9,4.9l0.5-0.5c0.2-0.2,0.4,0,0.2,0.2
	c-0.7,0.6-2.5,2.1-2.8,2.4s-2,2-2.7,2.6c-0.2,0.2-0.4,0-0.2-0.2l0.5-0.5c1.2-1.1,1.2-1.3-4.2-7.3L52.5,49z"/>
<path class="st0" d="M66,41.1l2.4-1.4c3.5-2.1,3.5-3.9,2.4-5.8l-0.3-0.6c-0.1-0.2,0.2-0.4,0.3-0.2c0.5,0.8,2,3.7,2.2,4.1
	s2.2,3.4,2.4,3.8c0.1,0.2-0.2,0.4-0.3,0.2l-0.2-0.4c-1.2-2-2.7-2.8-6.3-0.7l-2.4,1.4l3.2,5.5c0.9,1.4,1.6,2.8,2.2,4.3
	c0.8-0.5,4.5-2.6,5.4-3.1c3.3-2,3.9-6.2,2.6-9.3L79,37.2c-0.1-0.2,0.2-0.4,0.3-0.2l0.7,1.6c2.2,4.9,2.7,6.1,2.6,6.4
	c-1.2,0.9-2.4,1.7-3.7,2.4c-2,1.2-7.2,4.2-7.2,4.2l-4,2.5c-0.3,0.2-0.4,0-0.1-0.2c1.6-1,1.8-1.3-0.1-5c-1-2-3.3-5.8-4.8-8.4
	c-4.2-7-4.5-6.9-5.9-6.1l-0.5,0.3c-0.2,0.1-0.4-0.1-0.2-0.2c0.8-0.5,2.8-1.5,3.2-1.8s8.9-5.4,9.9-6c0.4-0.3,0.9-0.5,1.4-0.7
	c1.4,1.5,2.7,3.1,3.9,4.7l0.7,1c0.2,0.2-0.1,0.3-0.3,0.2l-0.8-0.9c-2.4-2.9-5.7-3.3-9-1.4l-3.6,2.1c-1.3,0.8-1.1,0.7,3.1,7.7
	L66,41.1z"/>
<path class="st0" d="M92.8,32.7c2.3,7.8,2.5,7.8,4.1,7.4l0.6-0.2c0.2-0.1,0.3,0.2,0.1,0.3c-0.9,0.3-3.1,0.8-3.5,1s-2.6,0.9-3.5,1.2
	c-0.2,0.1-0.3-0.2-0.1-0.3l0.6-0.2c1.6-0.5,1.7-0.6-0.7-8.4l-4.2-13.8c-0.9,0.3-1.9,0.6-2.6,0.8c-3.4,1-3.9,3.7-3.3,8l0.3,1.9
	c0,0.2-0.3,0.3-0.3,0.1L80,28.6c-0.6-3.5-1.8-6.5-1.6-6.6c1.2-0.6,2.5-1.1,3.8-1.4c0.8-0.2,3.8-1.1,5.1-1.5s1.9-0.6,5.1-1.6l0,0
	c1.3-0.4,2.6-0.8,3.9-0.9c0.2,0,0.8,3.2,2.3,6.4l0.8,1.7c0.1,0.2-0.2,0.3-0.3,0.1l-0.8-1.7c-1.9-3.9-3.8-5.9-7.2-4.9l-2.5,0.8
	L92.8,32.7z"/>
<path class="st0" d="M114,27.4l0.1,1.9c0.4,8.1,0.6,8.2,2.2,8.1h0.6c0.3,0,0.3,0.3,0,0.3c-0.9,0-3.1,0.1-3.6,0.1s-2.7,0.2-3.6,0.3
	c-0.3,0-0.3-0.3,0-0.3h0.6c1.6-0.1,1.8-0.2,1.3-8.3l-0.1-1.8l-3.9-6.2c-2.8-4.4-3.7-5.6-5.4-5.5H102c-0.2,0-0.2,0-0.2-0.1
	s0.1-0.2,0.2-0.2c0.9-0.1,2.8,0,3.3-0.1s3-0.3,4-0.3c0.3,0,0.4,0.3,0.1,0.3h-0.7c-1.7,0.1-1,1.5,1.7,5.9l3.4,5.6l3.2-6.2
	c0.7-1.3,2.5-5.9-0.7-5.7c-0.3,0-0.8,0.2-0.9,0.2c-0.1,0-0.2-0.1-0.2-0.2c0,0,0,0,0,0c0-0.1,0.1-0.2,0.4-0.2c0.6,0,2.9-0.1,3.5-0.1
	s2.8-0.2,3.6-0.2c0.3,0,0.2,0.3,0,0.3h-0.1c-1.9,0.1-4.5,4.8-5.1,6L114,27.4z"/>
<path class="st0" d="M138.5,25.4c2.5-7.7,2.4-7.9,0.8-8.4l-0.4-0.1c-0.2-0.1-0.2-0.4,0.1-0.3c0.9,0.3,2.8,1,3.3,1.2s2.6,0.8,3.5,1
	c0.3,0.1,0.2,0.4-0.1,0.3l-0.6-0.2c-1.5-0.5-1.7-0.4-4.2,7.3l-0.8,2.5l5.8,1.8l5.6,1.9l0.8-2.5c2.5-7.7,2.4-7.9,0.8-8.4l-0.7-0.2
	c-0.3-0.1-0.2-0.4,0.1-0.3c0.9,0.3,3,1.1,3.5,1.2s2.5,0.7,3.4,1c0.2,0.1,0.2,0.4-0.1,0.3l-0.5-0.2c-1.5-0.5-1.7-0.4-4.2,7.3
	l-1.8,5.5c-2.5,7.7-2.4,7.9-0.9,8.4l0.5,0.2c0.2,0.1,0.2,0.4-0.1,0.3c-0.9-0.3-2.9-1-3.4-1.2s-2.6-0.8-3.6-1
	c-0.2-0.1-0.2-0.4,0.1-0.3l0.7,0.2c1.5,0.5,1.7,0.4,4.2-7.3l0.9-2.6l-5.6-1.8c-2.3-0.7-4.6-1.5-5.8-1.9l-0.9,2.7
	c-2.5,7.7-2.4,7.9-0.8,8.4l0.6,0.2c0.3,0.1,0.2,0.4-0.1,0.3c-0.9-0.3-3-1.1-3.4-1.2s-2.5-0.7-3.4-1c-0.3-0.1-0.2-0.4,0.1-0.3
	l0.4,0.1c1.5,0.5,1.7,0.4,4.2-7.3L138.5,25.4z"/>
<path class="st0" d="M175.7,32.4c5.3,3.6,6.7,10.9,3,16.2c0,0,0,0,0,0.1c-3.7,5.4-11,6.8-16.4,3.1c-5.2-3.8-6.4-11.2-2.6-16.4
	C163.4,30.3,170.4,29,175.7,32.4L175.7,32.4z M162.4,51.4c4.5,3,10.1,1.2,13.9-4.4s3.8-11.3-0.7-14.3s-10-1.1-13.8,4.5
	S158,48.4,162.4,51.4L162.4,51.4z"/>
<path class="st0" d="M195.2,63.2c6.2-5.2,5-6.9,3.9-8.1l-0.2-0.2c-0.2-0.2,0.1-0.4,0.2-0.2c0.6,0.7,2.3,2.9,2.6,3.3s1.2,1.2,1.8,2
	c0.2,0.2-0.1,0.4-0.2,0.2l-0.1-0.2c-1-1.2-1.5-1.5-7.7,3.7l-4.8,4.1c-3.3,3-8.4,2.8-11.4-0.5c-0.1-0.2-0.3-0.3-0.4-0.5
	c-3.1-3.7-2.6-8.1,1.5-11.6l4.6-3.9c6.2-5.2,6.2-5.5,5.2-6.7l-0.3-0.3c-0.2-0.2,0.1-0.4,0.2-0.2c0.6,0.7,1.9,2.3,2.2,2.7
	s1.8,2,2.4,2.7c0.2,0.2-0.1,0.4-0.2,0.2l-0.4-0.5c-1-1.2-1.2-1.3-7.5,3.9l-3.9,3.3c-4.1,3.5-4.7,7.6-1.9,10.9
	c2.3,2.7,6.5,2.7,9.6,0.1L195.2,63.2z"/>
<path class="st0" d="M212.8,78.3c0.1,0.2,0.1,0.3-0.2,0.5c-0.6,0.4-2.6,1.1-7.3,3.5c-0.4,0.2-0.5-0.1-0.1-0.3
	c4.6-2.2,7.6-4.8,4.8-10.3c-1.8-3.6-4.2-4.2-6.5-3c-2.8,1.4-2.5,5.1-2.2,8.8s0.5,7.5-2.7,9.1c-3.4,1.7-7.1,0-8.9-3.5
	c-1.2-2.3-2.1-4.7-2.6-7.3c-0.1-0.3,0-0.3,0.1-0.4c1.4-0.7,6.1-3.1,7.5-3.9c0.4-0.2,0.6,0.1,0.2,0.3c-5.5,2.8-7.4,6.2-4.9,11.1
	c1.6,3.2,4,3.8,6.3,2.6c2.9-1.5,2.6-5,2.3-8.7c-0.3-3.8-0.6-7.7,2.6-9.3c3.5-1.8,7.2,0.3,9.1,4C211.4,73.6,212.2,75.9,212.8,78.3z"
	/>
<path class="st0" d="M206.6,91.6l0.7,2.7c1,4,2.7,4.5,4.9,3.9l0.7-0.2c0.3-0.1,0.3,0.3,0.1,0.3c-0.9,0.2-4.1,0.9-4.6,1
	s-3.9,1.1-4.3,1.3c-0.3,0.1-0.3-0.3-0.1-0.3l0.5-0.1c2.2-0.6,3.5-1.8,2.5-5.8l-0.7-2.7l-6.2,1.5c-1.6,0.4-3.2,0.7-4.8,0.9
	c0.2,0.9,1.2,5.1,1.4,6.1c0.9,3.7,4.8,5.5,8.2,5.1l1.7-0.2c0.2,0,0.3,0.3,0.1,0.4l-1.8,0.2c-5.4,0.7-6.6,0.8-6.9,0.7
	c-0.5-1.4-0.9-2.8-1.2-4.2c-0.6-2.2-1.9-8.1-1.9-8.1l-1.2-4.5c-0.1-0.3,0.1-0.4,0.2-0.1c0.5,1.9,0.8,2.1,4.9,1.3
	c2.2-0.4,6.5-1.5,9.4-2.2c7.9-2,7.9-2.3,7.5-3.9l-0.1-0.6c-0.1-0.2,0.2-0.3,0.3-0.1c0.2,0.9,0.7,3.1,0.8,3.6s2.6,10.1,2.9,11.2
	c0.1,0.5,0.2,1,0.2,1.5c-1.8,0.9-3.7,1.7-5.7,2.4l-1.1,0.4c-0.2,0.1-0.3-0.2-0.1-0.3l1.1-0.4c3.4-1.5,4.8-4.5,3.9-8.2l-1-4.1
	c-0.4-1.5-0.3-1.2-8.2,0.8L206.6,91.6z"/>
<circle class="st0" cx="24.5" cy="129" r="2.4"/>
<circle class="st0" cx="208.5" cy="129" r="2.4"/>
<path class="st0" d="M91,204.7l-0.6-6.3c-0.5-5.1-0.6-5.3-2.2-5.8l-0.2-0.1c-0.2,0-0.2-0.1-0.2-0.2s0.1-0.1,0.2-0.1
	c0.9,0.3,2.5,0.9,3,1.1s2.5,0.7,3.4,1c0.2,0.1,0.2,0.4-0.1,0.3l-0.2-0.1c-0.6-0.2-1.1-0.2-1.3,0.4s-0.3,1.3-0.1,4.6l0.3,3.5l2.2-2.6
	c0.8-1,1.5-2,2-3.2c0.3-1,0-1.6-0.6-1.8c-0.2-0.1-0.6-0.1-0.8-0.1s-0.2-0.1-0.1-0.2s0.1-0.2,0.4-0.1c0.6,0.2,2.3,0.8,2.8,1
	s2.4,0.7,3.1,0.9c0.2,0.1,0.1,0.3-0.1,0.3l-0.8-0.3c-1.5-0.5-3.1,0.6-5.7,3.7l-2.5,2.9l1,11c0,0.1,0,0.2,0.1,0.2
	c0.1,0,0.1,0,0.2-0.1L103,204c1.1-1.2,1.9-2.6,2.5-4.2c0.3-0.7,0-1.6-0.7-1.9c-0.1,0-0.2-0.1-0.3-0.1c-0.2-0.1-0.8-0.1-0.9-0.1
	s-0.2-0.2-0.2-0.2s0.1-0.2,0.4-0.1l3.4,1.2c0.4,0.1,1.8,0.5,2.6,0.8c0.2,0.1,0.1,0.4-0.1,0.3h-0.1c-1.5-0.5-3.3,1-6.3,4.7
	l-10.5,12.8c0,0.1-0.1,0.1-0.2,0l-0.3-0.1c-0.2-0.1-0.2-0.1-0.2-0.2l-1.1-11.6l-7.9,8.7c0,0.1-0.1,0.1-0.2,0l-0.2-0.1
	c-0.2-0.1-0.2-0.1-0.2-0.2l-0.8-16.6c-0.4-6.6-0.6-6.9-2.2-7.4h-0.1c-0.2,0-0.2-0.1-0.2-0.2s0.1-0.1,0.2-0.1c0.9,0.3,2.3,0.9,2.8,1
	s3.4,1,4.3,1.3c0.2,0.1,0.2,0.4,0,0.3l-0.8-0.2c-0.9-0.3-1.4-0.1-1.6,0.4s-0.2,2.9,0,7.5l0.6,11.6c0,0.1,0,0.2,0.1,0.2
	c0.1,0,0.1,0,0.2-0.1L91,204.7z"/>
</svg>
